<svg height="3070" width="720" xmlns="http://www.w3.org/2000/svg">
<rect height="3070" fill="#555" width="720"></rect>
<text fill="#7f7" font-family="Courier New" font-size="12" xml:space="preserve">
<tspan x="10" y="26">13 megabytes</tspan>
<tspan x="10" y="42">└─┬ sails-auth@2.1.3 </tspan>
<tspan x="10" y="58">  ├── bcryptjs@2.3.0 </tspan>
<tspan x="10" y="74">  ├── lodash@3.10.1 </tspan>
<tspan x="10" y="90">  ├─┬ marlinspike@0.12.15 </tspan>
<tspan x="10" y="106">  │ ├─┬ gulp@3.9.1 </tspan>
<tspan x="10" y="122">  │ │ ├── archy@1.0.0 </tspan>
<tspan x="10" y="138">  │ │ ├─┬ chalk@1.1.3 </tspan>
<tspan x="10" y="154">  │ │ │ ├── ansi-styles@2.2.1 </tspan>
<tspan x="10" y="170">  │ │ │ ├── escape-string-regexp@1.0.5 </tspan>
<tspan x="10" y="186">  │ │ │ ├─┬ has-ansi@2.0.0 </tspan>
<tspan x="10" y="202">  │ │ │ │ └── ansi-regex@2.1.1 </tspan>
<tspan x="10" y="218">  │ │ │ ├── strip-ansi@3.0.1 </tspan>
<tspan x="10" y="234">  │ │ │ └── supports-color@2.0.0 </tspan>
<tspan x="10" y="250">  │ │ ├── deprecated@0.0.1 </tspan>
<tspan x="10" y="266">  │ │ ├─┬ gulp-util@3.0.8 </tspan>
<tspan x="10" y="282">  │ │ │ ├── array-differ@1.0.0 </tspan>
<tspan x="10" y="298">  │ │ │ ├── array-uniq@1.0.3 </tspan>
<tspan x="10" y="314">  │ │ │ ├── beeper@1.1.1 </tspan>
<tspan x="10" y="330">  │ │ │ ├── dateformat@2.0.0 </tspan>
<tspan x="10" y="346">  │ │ │ ├─┬ fancy-log@1.3.0 </tspan>
<tspan x="10" y="362">  │ │ │ │ └── time-stamp@1.0.1 </tspan>
<tspan x="10" y="378">  │ │ │ ├─┬ gulplog@1.0.0 </tspan>
<tspan x="10" y="394">  │ │ │ │ └── glogg@1.0.0 </tspan>
<tspan x="10" y="410">  │ │ │ ├─┬ has-gulplog@0.1.0 </tspan>
<tspan x="10" y="426">  │ │ │ │ └── sparkles@1.0.0 </tspan>
<tspan x="10" y="442">  │ │ │ ├── lodash._reescape@3.0.0 </tspan>
<tspan x="10" y="458">  │ │ │ ├── lodash._reevaluate@3.0.0 </tspan>
<tspan x="10" y="474">  │ │ │ ├── lodash._reinterpolate@3.0.0 </tspan>
<tspan x="10" y="490">  │ │ │ ├─┬ lodash.template@3.6.2 </tspan>
<tspan x="10" y="506">  │ │ │ │ ├── lodash._basecopy@3.0.1 </tspan>
<tspan x="10" y="522">  │ │ │ │ ├── lodash._basetostring@3.0.1 </tspan>
<tspan x="10" y="538">  │ │ │ │ ├── lodash._basevalues@3.0.0 </tspan>
<tspan x="10" y="554">  │ │ │ │ ├── lodash._isiterateecall@3.0.9 </tspan>
<tspan x="10" y="570">  │ │ │ │ ├─┬ lodash.escape@3.2.0 </tspan>
<tspan x="10" y="586">  │ │ │ │ │ └── lodash._root@3.0.1 </tspan>
<tspan x="10" y="602">  │ │ │ │ ├─┬ lodash.keys@3.1.2 </tspan>
<tspan x="10" y="618">  │ │ │ │ │ ├── lodash._getnative@3.9.1 </tspan>
<tspan x="10" y="634">  │ │ │ │ │ ├── lodash.isarguments@3.1.0 </tspan>
<tspan x="10" y="650">  │ │ │ │ │ └── lodash.isarray@3.0.4 </tspan>
<tspan x="10" y="666">  │ │ │ │ ├── lodash.restparam@3.6.1 </tspan>
<tspan x="10" y="682">  │ │ │ │ └── lodash.templatesettings@3.1.1 </tspan>
<tspan x="10" y="698">  │ │ │ ├─┬ multipipe@0.1.2 </tspan>
<tspan x="10" y="714">  │ │ │ │ └─┬ duplexer2@0.0.2 </tspan>
<tspan x="10" y="730">  │ │ │ │   └── readable-stream@1.1.14 </tspan>
<tspan x="10" y="746">  │ │ │ ├── object-assign@3.0.0 </tspan>
<tspan x="10" y="762">  │ │ │ ├── replace-ext@0.0.1 </tspan>
<tspan x="10" y="778">  │ │ │ ├─┬ through2@2.0.3 </tspan>
<tspan x="10" y="794">  │ │ │ │ ├─┬ readable-stream@2.2.7 </tspan>
<tspan x="10" y="810">  │ │ │ │ │ ├── buffer-shims@1.0.0 </tspan>
<tspan x="10" y="826">  │ │ │ │ │ ├── core-util-is@1.0.2 </tspan>
<tspan x="10" y="842">  │ │ │ │ │ ├── inherits@2.0.3 </tspan>
<tspan x="10" y="858">  │ │ │ │ │ ├── isarray@1.0.0 </tspan>
<tspan x="10" y="874">  │ │ │ │ │ ├── process-nextick-args@1.0.7 </tspan>
<tspan x="10" y="890">  │ │ │ │ │ ├── string_decoder@1.0.0 </tspan>
<tspan x="10" y="906">  │ │ │ │ │ └── util-deprecate@1.0.2 </tspan>
<tspan x="10" y="922">  │ │ │ │ └── xtend@4.0.1 </tspan>
<tspan x="10" y="938">  │ │ │ └─┬ vinyl@0.5.3 </tspan>
<tspan x="10" y="954">  │ │ │   ├── clone@1.0.2 </tspan>
<tspan x="10" y="970">  │ │ │   └── clone-stats@0.0.1 </tspan>
<tspan x="10" y="986">  │ │ ├── interpret@1.0.2 </tspan>
<tspan x="10" y="1002">  │ │ ├─┬ liftoff@2.3.0 </tspan>
<tspan x="10" y="1018">  │ │ │ ├── extend@3.0.0 </tspan>
<tspan x="10" y="1034">  │ │ │ ├─┬ findup-sync@0.4.3 </tspan>
<tspan x="10" y="1050">  │ │ │ │ ├─┬ detect-file@0.1.0 </tspan>
<tspan x="10" y="1066">  │ │ │ │ │ └── fs-exists-sync@0.1.0 </tspan>
<tspan x="10" y="1082">  │ │ │ │ ├─┬ is-glob@2.0.1 </tspan>
<tspan x="10" y="1098">  │ │ │ │ │ └── is-extglob@1.0.0 </tspan>
<tspan x="10" y="1114">  │ │ │ │ ├─┬ micromatch@2.3.11 </tspan>
<tspan x="10" y="1130">  │ │ │ │ │ ├─┬ arr-diff@2.0.0 </tspan>
<tspan x="10" y="1146">  │ │ │ │ │ │ └── arr-flatten@1.0.1 </tspan>
<tspan x="10" y="1162">  │ │ │ │ │ ├── array-unique@0.2.1 </tspan>
<tspan x="10" y="1178">  │ │ │ │ │ ├─┬ braces@1.8.5 </tspan>
<tspan x="10" y="1194">  │ │ │ │ │ │ ├─┬ expand-range@1.8.2 </tspan>
<tspan x="10" y="1210">  │ │ │ │ │ │ │ └─┬ fill-range@2.2.3 </tspan>
<tspan x="10" y="1226">  │ │ │ │ │ │ │   ├── is-number@2.1.0 </tspan>
<tspan x="10" y="1242">  │ │ │ │ │ │ │   ├─┬ isobject@2.1.0 </tspan>
<tspan x="10" y="1258">  │ │ │ │ │ │ │   │ └── isarray@1.0.0 </tspan>
<tspan x="10" y="1274">  │ │ │ │ │ │ │   ├── randomatic@1.1.6 </tspan>
<tspan x="10" y="1290">  │ │ │ │ │ │ │   └── repeat-string@1.6.1 </tspan>
<tspan x="10" y="1306">  │ │ │ │ │ │ ├── preserve@0.2.0 </tspan>
<tspan x="10" y="1322">  │ │ │ │ │ │ └── repeat-element@1.1.2 </tspan>
<tspan x="10" y="1338">  │ │ │ │ │ ├─┬ expand-brackets@0.1.5 </tspan>
<tspan x="10" y="1354">  │ │ │ │ │ │ └── is-posix-bracket@0.1.1 </tspan>
<tspan x="10" y="1370">  │ │ │ │ │ ├── extglob@0.3.2 </tspan>
<tspan x="10" y="1386">  │ │ │ │ │ ├── filename-regex@2.0.0 </tspan>
<tspan x="10" y="1402">  │ │ │ │ │ ├─┬ kind-of@3.1.0 </tspan>
<tspan x="10" y="1418">  │ │ │ │ │ │ └── is-buffer@1.1.5 </tspan>
<tspan x="10" y="1434">  │ │ │ │ │ ├─┬ normalize-path@2.1.1 </tspan>
<tspan x="10" y="1450">  │ │ │ │ │ │ └── remove-trailing-separator@1.0.1 </tspan>
<tspan x="10" y="1466">  │ │ │ │ │ ├─┬ object.omit@2.0.1 </tspan>
<tspan x="10" y="1482">  │ │ │ │ │ │ ├─┬ for-own@0.1.5 </tspan>
<tspan x="10" y="1498">  │ │ │ │ │ │ │ └── for-in@1.0.2 </tspan>
<tspan x="10" y="1514">  │ │ │ │ │ │ └── is-extendable@0.1.1 </tspan>
<tspan x="10" y="1530">  │ │ │ │ │ ├─┬ parse-glob@3.0.4 </tspan>
<tspan x="10" y="1546">  │ │ │ │ │ │ ├─┬ glob-base@0.3.0 </tspan>
<tspan x="10" y="1562">  │ │ │ │ │ │ │ └── glob-parent@2.0.0 </tspan>
<tspan x="10" y="1578">  │ │ │ │ │ │ └── is-dotfile@1.0.2 </tspan>
<tspan x="10" y="1594">  │ │ │ │ │ └─┬ regex-cache@0.4.3 </tspan>
<tspan x="10" y="1610">  │ │ │ │ │   ├── is-equal-shallow@0.1.3 </tspan>
<tspan x="10" y="1626">  │ │ │ │ │   └── is-primitive@2.0.0 </tspan>
<tspan x="10" y="1642">  │ │ │ │ └─┬ resolve-dir@0.1.1 </tspan>
<tspan x="10" y="1658">  │ │ │ │   └─┬ global-modules@0.2.3 </tspan>
<tspan x="10" y="1674">  │ │ │ │     ├─┬ global-prefix@0.1.5 </tspan>
<tspan x="10" y="1690">  │ │ │ │     │ ├─┬ homedir-polyfill@1.0.1 </tspan>
<tspan x="10" y="1706">  │ │ │ │     │ │ └── parse-passwd@1.0.0 </tspan>
<tspan x="10" y="1722">  │ │ │ │     │ ├── ini@1.3.4 </tspan>
<tspan x="10" y="1738">  │ │ │ │     │ └─┬ which@1.2.14 </tspan>
<tspan x="10" y="1754">  │ │ │ │     │   └── isexe@2.0.0 </tspan>
<tspan x="10" y="1770">  │ │ │ │     └── is-windows@0.2.0 </tspan>
<tspan x="10" y="1786">  │ │ │ ├─┬ fined@1.0.2 </tspan>
<tspan x="10" y="1802">  │ │ │ │ ├── expand-tilde@1.2.2 </tspan>
<tspan x="10" y="1818">  │ │ │ │ ├── lodash.assignwith@4.2.0 </tspan>
<tspan x="10" y="1834">  │ │ │ │ ├── lodash.isempty@4.4.0 </tspan>
<tspan x="10" y="1850">  │ │ │ │ ├── lodash.pick@4.4.0 </tspan>
<tspan x="10" y="1866">  │ │ │ │ └─┬ parse-filepath@1.0.1 </tspan>
<tspan x="10" y="1882">  │ │ │ │   ├─┬ is-absolute@0.2.6 </tspan>
<tspan x="10" y="1898">  │ │ │ │   │ └─┬ is-relative@0.2.1 </tspan>
<tspan x="10" y="1914">  │ │ │ │   │   └─┬ is-unc-path@0.1.2 </tspan>
<tspan x="10" y="1930">  │ │ │ │   │     └── unc-path-regex@0.1.2 </tspan>
<tspan x="10" y="1946">  │ │ │ │   ├── map-cache@0.2.2 </tspan>
<tspan x="10" y="1962">  │ │ │ │   └─┬ path-root@0.1.1 </tspan>
<tspan x="10" y="1978">  │ │ │ │     └── path-root-regex@0.1.2 </tspan>
<tspan x="10" y="1994">  │ │ │ ├── flagged-respawn@0.3.2 </tspan>
<tspan x="10" y="2010">  │ │ │ ├── lodash.isplainobject@4.0.6 </tspan>
<tspan x="10" y="2026">  │ │ │ ├── lodash.isstring@4.0.1 </tspan>
<tspan x="10" y="2042">  │ │ │ ├── lodash.mapvalues@4.6.0 </tspan>
<tspan x="10" y="2058">  │ │ │ ├── rechoir@0.6.2 </tspan>
<tspan x="10" y="2074">  │ │ │ └─┬ resolve@1.3.2 </tspan>
<tspan x="10" y="2090">  │ │ │   └── path-parse@1.0.5 </tspan>
<tspan x="10" y="2106">  │ │ ├── minimist@1.2.0 </tspan>
<tspan x="10" y="2122">  │ │ ├─┬ orchestrator@0.3.8 </tspan>
<tspan x="10" y="2138">  │ │ │ ├─┬ end-of-stream@0.1.5 </tspan>
<tspan x="10" y="2154">  │ │ │ │ └─┬ once@1.3.3 </tspan>
<tspan x="10" y="2170">  │ │ │ │   └── wrappy@1.0.2 </tspan>
<tspan x="10" y="2186">  │ │ │ ├── sequencify@0.0.7 </tspan>
<tspan x="10" y="2202">  │ │ │ └── stream-consume@0.1.0 </tspan>
<tspan x="10" y="2218">  │ │ ├── pretty-hrtime@1.0.3 </tspan>
<tspan x="10" y="2234">  │ │ ├── semver@4.3.6 </tspan>
<tspan x="10" y="2250">  │ │ ├─┬ tildify@1.2.0 </tspan>
<tspan x="10" y="2266">  │ │ │ └── os-homedir@1.0.2 </tspan>
<tspan x="10" y="2282">  │ │ ├─┬ v8flags@2.0.12 </tspan>
<tspan x="10" y="2298">  │ │ │ └── user-home@1.1.1 </tspan>
<tspan x="10" y="2314">  │ │ └─┬ vinyl-fs@0.3.14 </tspan>
<tspan x="10" y="2330">  │ │   ├── defaults@1.0.3 </tspan>
<tspan x="10" y="2346">  │ │   ├─┬ glob-stream@3.1.18 </tspan>
<tspan x="10" y="2362">  │ │   │ ├─┬ glob@4.5.3 </tspan>
<tspan x="10" y="2378">  │ │   │ │ └── inflight@1.0.6 </tspan>
<tspan x="10" y="2394">  │ │   │ ├─┬ glob2base@0.0.12 </tspan>
<tspan x="10" y="2410">  │ │   │ │ └── find-index@0.1.1 </tspan>
<tspan x="10" y="2426">  │ │   │ ├─┬ minimatch@2.0.10 </tspan>
<tspan x="10" y="2442">  │ │   │ │ └─┬ brace-expansion@1.1.7 </tspan>
<tspan x="10" y="2458">  │ │   │ │   ├── balanced-match@0.4.2 </tspan>
<tspan x="10" y="2474">  │ │   │ │   └── concat-map@0.0.1 </tspan>
<tspan x="10" y="2490">  │ │   │ ├── ordered-read-streams@0.1.0 </tspan>
<tspan x="10" y="2506">  │ │   │ ├─┬ through2@0.6.5 </tspan>
<tspan x="10" y="2522">  │ │   │ │ └── readable-stream@1.0.34 </tspan>
<tspan x="10" y="2538">  │ │   │ └── unique-stream@1.0.0 </tspan>
<tspan x="10" y="2554">  │ │   ├─┬ glob-watcher@0.0.6 </tspan>
<tspan x="10" y="2570">  │ │   │ └─┬ gaze@0.5.2 </tspan>
<tspan x="10" y="2586">  │ │   │   └─┬ globule@0.1.0 </tspan>
<tspan x="10" y="2602">  │ │   │     ├─┬ glob@3.1.21 </tspan>
<tspan x="10" y="2618">  │ │   │     │ ├── graceful-fs@1.2.3 </tspan>
<tspan x="10" y="2634">  │ │   │     │ └── inherits@1.0.2 </tspan>
<tspan x="10" y="2650">  │ │   │     ├── lodash@1.0.2 </tspan>
<tspan x="10" y="2666">  │ │   │     └─┬ minimatch@0.2.14 </tspan>
<tspan x="10" y="2682">  │ │   │       ├── lru-cache@2.7.3 </tspan>
<tspan x="10" y="2698">  │ │   │       └── sigmund@1.0.1 </tspan>
<tspan x="10" y="2714">  │ │   ├─┬ graceful-fs@3.0.11 </tspan>
<tspan x="10" y="2730">  │ │   │ └── natives@1.1.0 </tspan>
<tspan x="10" y="2746">  │ │   ├─┬ mkdirp@0.5.1 </tspan>
<tspan x="10" y="2762">  │ │   │ └── minimist@0.0.8 </tspan>
<tspan x="10" y="2778">  │ │   ├─┬ strip-bom@1.0.0 </tspan>
<tspan x="10" y="2794">  │ │   │ ├── first-chunk-stream@1.0.0 </tspan>
<tspan x="10" y="2810">  │ │   │ └── is-utf8@0.2.1 </tspan>
<tspan x="10" y="2826">  │ │   ├─┬ through2@0.6.5 </tspan>
<tspan x="10" y="2842">  │ │   │ └─┬ readable-stream@1.0.34 </tspan>
<tspan x="10" y="2858">  │ │   │   ├── isarray@0.0.1 </tspan>
<tspan x="10" y="2874">  │ │   │   └── string_decoder@0.10.31 </tspan>
<tspan x="10" y="2890">  │ │   └─┬ vinyl@0.4.6 </tspan>
<tspan x="10" y="2906">  │ │     └── clone@0.2.0 </tspan>
<tspan x="10" y="2922">  │ ├── lodash@3.10.1 </tspan>
<tspan x="10" y="2938">  │ └── require-all@2.0.0 </tspan>
<tspan x="10" y="2954">  ├─┬ passport@0.3.2 </tspan>
<tspan x="10" y="2970">  │ ├── passport-strategy@1.0.0 </tspan>
<tspan x="10" y="2986">  │ └── pause@0.0.1 </tspan>
<tspan x="10" y="3002">  ├─┬ passport-http@0.3.0 </tspan>
<tspan x="10" y="3018">  │ └── passport-strategy@1.0.0 </tspan>
<tspan x="10" y="3034">  └─┬ passport-local@1.0.0 </tspan>
<tspan x="10" y="3050">    └── passport-strategy@1.0.0</tspan>
</text>
</svg>
